<svg xmlns="http://www.w3.org/2000/svg" viewBox="0 0 253 70">
  <g fill="none" fill-rule="evenodd">
    <rect width="252.5" height="70" fill="#23272A" rx="3.75"/>
    <g fill="#FFFFFE">
      <path d="M51.2502018 11.25C37.7899141 11.25 26.875 22.0084312 26.875 35.2806783c0 10.6175589 6.98423722 19.625432 16.6692507 22.8030193 1.218195.222451 1.6654316-.5213074 1.6654316-1.156029 0-.5730401-.0226041-2.4660624-.0330988-4.4740907-6.7812047 1.4536915-8.2121196-2.835355-8.2121196-2.835355-1.10880772-2.777653-2.70642726-3.5162381-2.70642726-3.5162381-2.21156076-1.4914963.16670461-1.4608545.16670461-1.4608545 2.44769199.1691264 3.73652455 2.476409 3.73652455 2.476409 2.1740219 3.6738242 5.7022666 2.6117102 7.0932208 1.9976817.2187746-1.5527797.8504761-2.6136999 1.5475678-3.2134023-5.4140654-.6076614-11.10543362-2.6682183-11.10543362-11.8762576 0-2.6236485.95219417-4.7673758 2.51146762-6.4502834-.2530843-.6056716-1.0874146-3.0494492.2361312-6.35955203 0 0 2.0468744-.64586402 6.7049162 2.46327683 1.944349-.5324498 4.0295694-.7994706 6.101066-.8086233 2.0714966.0091527 4.1583316.2761735 6.1063134.8086233 4.6523908-3.10914085 6.6964397-2.46327683 6.6964397-2.46327683 1.326775 3.31010283.492041 5.75388043.2389567 6.35955203 1.5629062 1.6829076 2.5086421 3.8266349 2.5086421 6.4502834 0 9.2299262-5.7022666 11.2622291-11.1300559 11.8571562.8742911.7457481 1.6533223 2.2081944 1.6533223 4.4502141 0 3.2149941-.028255 5.8028276-.028255 6.5947372 0 .639497.4387601 1.3888266 1.6743117 1.1528454C68.6496429 54.8993452 75.625 45.8946557 75.625 35.2806783 75.625 22.0084312 64.7117005 11.25 51.2502018 11.25M116.639875 32.50875H105.28975c-.292875 0-.53025.23775-.53025.530625v5.54925c0 .292875.237375.531375.53025.531375h4.427625v6.894375s-.994125.339-3.742875.339c-3.242625 0-7.772625-1.185-7.772625-11.146125 0-9.96375 4.717125-11.274375 9.1455-11.274375 3.833625 0 5.48475.674625 6.535875 1.000125.330375.10125.635625-.227625.635625-.520875l1.266-5.361375c0-.137625-.0465-.30225-.2025-.414375-.42675-.3045-3.030375-1.761375-9.607875-1.761375-7.576875 0-15.3495 3.2235-15.3495 18.72075s8.89875 17.8065 16.397625 17.8065c6.208875 0 9.975375-2.653125 9.975375-2.653125.15525-.085875.172125-.303.172125-.402v-17.30775c0-.292875-.237375-.530625-.53025-.530625M175.133875 18.732c0-.2955-.234-.533625-.52725-.533625h-6.39075c-.29175 0-.529125.238125-.529125.533625 0 .001125.001875 12.35025.001875 12.35025h-9.961875V18.732c0-.2955-.23475-.533625-.52725-.533625h-6.390375c-.290625 0-.528.238125-.528.533625v33.441375c0 .295125.237375.53475.528.53475h6.390375c.2925 0 .52725-.239625.52725-.53475V37.869h9.961875S167.671 52.17225 167.671 52.173375c0 .295125.237.53475.5295.53475h6.40575c.292875 0 .526875-.239625.527625-.53475V18.732M128.6995 23.119875c0-2.301-1.844625-4.160625-4.120875-4.160625-2.274 0-4.1205 1.859625-4.1205 4.160625 0 2.299125 1.8465 4.164 4.1205 4.164 2.27625 0 4.120875-1.864875 4.120875-4.164M128.24275 45.118875v-15.4365c0-.29325-.236625-.532875-.52875-.532875h-6.370875c-.292125 0-.5535.3015-.5535.594375V51.86025c0 .649875.405.843375.928875.843375h5.73975c.63 0 .7845-.309375.7845-.853875v-6.730875M199.4215 29.19975h-6.341625c-.290625 0-.527625.24-.527625.535125V46.13175s-1.611375 1.179-3.898125 1.179c-2.286375 0-2.893125-1.037625-2.893125-3.276375v-14.2995c0-.295125-.23625-.535125-.527625-.535125h-6.4365c-.29025 0-.528375.24-.528375.535125v15.38175c0 6.651 3.7065 8.278125 8.805375 8.278125 4.1835 0 7.55625-2.3115 7.55625-2.3115s.1605 1.218375.23325 1.362375c.072375.144.26175.289875.4665.289875l4.094625-.018375c.29025 0 .528375-.24.528375-.534l-.00225-22.44825c0-.295125-.236625-.535125-.529125-.535125M214.2535 47.2905c-2.19975-.06675-3.691875-1.065375-3.691875-1.065375v-10.59s1.471875-.90225 3.277875-1.0635c2.28375-.20475 4.48425.48525 4.48425 5.93325 0 5.744625-.993 6.87825-4.07025 6.785625zm2.50125-18.841875c-3.601875 0-6.05175 1.606875-6.05175 1.606875V18.732c0-.2955-.23625-.533625-.52725-.533625h-6.409125c-.291375 0-.528.238125-.528.533625v33.441375c0 .295125.236625.53475.52875.53475h4.44675c.20025 0 .35175-.103125.463875-.2835.110625-.18.27-1.542375.27-1.542375s2.6205 2.483625 7.581375 2.483625c5.8245 0 9.164625-2.95425 9.164625-13.26225s-5.33475-11.655-8.93925-11.655zM146.61025 29.1465h-4.794s-.007125-6.3315-.007125-6.333c0-.24-.12375-.359625-.400875-.359625h-6.5325c-.25425 0-.390375.11175-.390375.355875v6.5445s-3.27375.7905-3.495375.853875c-.220125.064125-.3825.267375-.3825.51v4.112625c0 .295875.23625.534375.528375.534375h3.3495v9.894c0 7.348875 5.15475 8.07075 8.632875 8.07075 1.589625 0 3.490875-.51075 3.80475-.62625.18975-.070125.3-.266625.3-.48l.005625-4.524c0-.29475-.249375-.534-.529875-.534-.27975 0-.994125.114-1.729875.114-2.355 0-3.152625-1.095-3.152625-2.512125 0-1.416375-.000375-9.402375-.000375-9.402375h4.794375c.292125 0 .52875-.2385.52875-.534375v-5.151375c0-.295125-.236625-.532875-.52875-.532875"/>
    </g>
  </g>
</svg>