<?xml version="1.0" encoding="UTF-8"?>
<svg width="253px" height="70px" viewBox="0 0 253 70" version="1.1" xmlns="http://www.w3.org/2000/svg" xmlns:xlink="http://www.w3.org/1999/xlink">
    <title>Group 4</title>
    <g id="Page-1" stroke="none" stroke-width="1" fill="none" fill-rule="evenodd">
        <g id="Website" transform="translate(-467.000000, -834.000000)">
            <g id="Group-4" transform="translate(467.000000, 834.000000)">
                <rect id="Rectangle" fill="#23272A" x="0" y="0" width="252.5" height="70" rx="3.75"></rect>
                <g id="Group-3" transform="translate(26.875000, 11.250000)" fill="#FFFFFE">
                    <path d="M24.3752018,0 C10.9149141,0 0,10.7584312 0,24.0306783 C0,34.6482372 6.98423722,43.6561103 16.6692507,46.8336976 C17.8874457,47.0561486 18.3346823,46.3123902 18.3346823,45.6776686 C18.3346823,45.1046285 18.3120782,43.2116062 18.3015835,41.2035779 C11.5203788,42.6572694 10.0894639,38.3682229 10.0894639,38.3682229 C8.98065618,35.5905699 7.38303664,34.8519848 7.38303664,34.8519848 C5.17147588,33.3604885 7.54974125,33.3911303 7.54974125,33.3911303 C9.99743324,33.5602567 11.2862658,35.8675393 11.2862658,35.8675393 C13.4602877,39.5413635 16.9885324,38.4792495 18.3794866,37.865221 C18.5982612,36.3124413 19.2299627,35.2515211 19.9270544,34.6518187 C14.512989,34.0441573 8.82162078,31.9836004 8.82162078,22.7755611 C8.82162078,20.1519126 9.77381495,18.0081853 11.3330884,16.3252777 C11.0800041,15.7196061 10.2456738,13.2758285 11.5692196,9.96572567 C11.5692196,9.96572567 13.616094,9.31986165 18.2741358,12.4290025 C20.2184848,11.8965527 22.3037052,11.6295319 24.3752018,11.6203792 C26.4466984,11.6295319 28.5335334,11.8965527 30.4815152,12.4290025 C35.133906,9.31986165 37.1779549,9.96572567 37.1779549,9.96572567 C38.5047299,13.2758285 37.6699959,15.7196061 37.4169116,16.3252777 C38.9798178,18.0081853 39.9255537,20.1519126 39.9255537,22.7755611 C39.9255537,32.0054873 34.2232871,34.0377902 28.7954978,34.6327173 C29.6697889,35.3784654 30.4488201,36.8409117 30.4488201,39.0829314 C30.4488201,42.2979255 30.4205651,44.885759 30.4205651,45.6776686 C30.4205651,46.3171656 30.8593252,47.0664952 32.0948768,46.830514 C41.7746429,43.6493452 48.75,34.6446557 48.75,24.0306783 C48.75,10.7584312 37.8367005,0 24.3752018,0" id="Fill-52"></path>
                    <g id="Group" transform="translate(63.750000, 5.625000)">
                        <path d="M26.014875,15.63375 L14.66475,15.63375 C14.371875,15.63375 14.1345,15.8715 14.1345,16.164375 L14.1345,21.713625 C14.1345,22.0065 14.371875,22.245 14.66475,22.245 L19.092375,22.245 L19.092375,29.139375 C19.092375,29.139375 18.09825,29.478375 15.3495,29.478375 C12.106875,29.478375 7.576875,28.293375 7.576875,18.33225 C7.576875,8.3685 12.294,7.057875 16.722375,7.057875 C20.556,7.057875 22.207125,7.7325 23.25825,8.058 C23.588625,8.15925 23.893875,7.830375 23.893875,7.537125 L25.159875,2.17575 C25.159875,2.038125 25.113375,1.8735 24.957375,1.761375 C24.530625,1.456875 21.927,-1.0658141e-14 15.3495,-1.0658141e-14 C7.772625,-1.0658141e-14 -2.90434343e-13,3.2235 -2.90434343e-13,18.72075 C-2.90434343e-13,34.218 8.89875,36.52725 16.397625,36.52725 C22.6065,36.52725 26.373,33.874125 26.373,33.874125 C26.52825,33.78825 26.545125,33.571125 26.545125,33.472125 L26.545125,16.164375 C26.545125,15.8715 26.30775,15.63375 26.014875,15.63375" id="Fill-3"></path>
                        <path d="M84.508875,1.857 C84.508875,1.5615 84.274875,1.323375 83.981625,1.323375 L77.590875,1.323375 C77.299125,1.323375 77.06175,1.5615 77.06175,1.857 C77.06175,1.858125 77.063625,14.20725 77.063625,14.20725 L67.10175,14.20725 L67.10175,1.857 C67.10175,1.5615 66.867,1.323375 66.5745,1.323375 L60.184125,1.323375 C59.8935,1.323375 59.656125,1.5615 59.656125,1.857 L59.656125,35.298375 C59.656125,35.5935 59.8935,35.833125 60.184125,35.833125 L66.5745,35.833125 C66.867,35.833125 67.10175,35.5935 67.10175,35.298375 L67.10175,20.994 L77.063625,20.994 C77.063625,20.994 77.046,35.29725 77.046,35.298375 C77.046,35.5935 77.283,35.833125 77.5755,35.833125 L83.98125,35.833125 C84.274125,35.833125 84.508125,35.5935 84.508875,35.298375 L84.508875,1.857" id="Fill-4"></path>
                        <path d="M38.0745,6.244875 C38.0745,3.943875 36.229875,2.08425 33.953625,2.08425 C31.679625,2.08425 29.833125,3.943875 29.833125,6.244875 C29.833125,8.544 31.679625,10.408875 33.953625,10.408875 C36.229875,10.408875 38.0745,8.544 38.0745,6.244875" id="Fill-5"></path>
                        <path d="M37.61775,28.243875 C37.61775,27.387 37.61775,12.807375 37.61775,12.807375 C37.61775,12.514125 37.381125,12.2745 37.089,12.2745 L30.718125,12.2745 C30.426,12.2745 30.164625,12.576 30.164625,12.868875 C30.164625,12.868875 30.164625,31.444125 30.164625,34.98525 C30.164625,35.635125 30.569625,35.828625 31.0935,35.828625 C31.0935,35.828625 33.813,35.828625 36.83325,35.828625 C37.46325,35.828625 37.61775,35.51925 37.61775,34.97475 C37.61775,33.789375 37.61775,29.145375 37.61775,28.243875" id="Fill-6"></path>
                        <path d="M108.7965,12.32475 L102.454875,12.32475 C102.16425,12.32475 101.92725,12.56475 101.92725,12.859875 L101.92725,29.25675 C101.92725,29.25675 100.315875,30.43575 98.029125,30.43575 C95.74275,30.43575 95.136,29.398125 95.136,27.159375 C95.136,24.91725 95.136,12.859875 95.136,12.859875 C95.136,12.56475 94.89975,12.32475 94.608375,12.32475 L88.171875,12.32475 C87.881625,12.32475 87.6435,12.56475 87.6435,12.859875 C87.6435,12.859875 87.6435,21.59175 87.6435,28.241625 C87.6435,34.892625 91.35,36.51975 96.448875,36.51975 C100.632375,36.51975 104.005125,34.20825 104.005125,34.20825 C104.005125,34.20825 104.165625,35.426625 104.238375,35.570625 C104.31075,35.714625 104.500125,35.8605 104.704875,35.8605 L108.7995,35.842125 C109.08975,35.842125 109.327875,35.602125 109.327875,35.308125 L109.325625,12.859875 C109.325625,12.56475 109.089,12.32475 108.7965,12.32475" id="Fill-7"></path>
                        <path d="M123.6285,30.4155 C121.42875,30.34875 119.936625,29.350125 119.936625,29.350125 L119.936625,18.760125 C119.936625,18.760125 121.4085,17.857875 123.2145,17.696625 C125.49825,17.491875 127.69875,18.181875 127.69875,23.629875 C127.69875,29.3745 126.70575,30.508125 123.6285,30.4155 Z M126.12975,11.573625 C122.527875,11.573625 120.078,13.1805 120.078,13.1805 L120.078,1.857 C120.078,1.5615 119.84175,1.323375 119.55075,1.323375 L113.141625,1.323375 C112.85025,1.323375 112.613625,1.5615 112.613625,1.857 L112.613625,35.298375 C112.613625,35.5935 112.85025,35.833125 113.142375,35.833125 C113.143125,35.833125 117.587625,35.833125 117.589125,35.833125 C117.789375,35.833125 117.940875,35.73 118.053,35.549625 C118.163625,35.369625 118.323,34.00725 118.323,34.00725 C118.323,34.00725 120.9435,36.490875 125.904375,36.490875 C131.728875,36.490875 135.069,33.536625 135.069,23.228625 C135.069,12.920625 129.73425,11.573625 126.12975,11.573625 L126.12975,11.573625 Z" id="Fill-8"></path>
                        <path d="M55.98525,12.2715 L51.19125,12.2715 C51.19125,12.2715 51.184125,5.94 51.184125,5.9385 C51.184125,5.6985 51.060375,5.578875 50.78325,5.578875 L44.25075,5.578875 C43.9965,5.578875 43.860375,5.690625 43.860375,5.93475 L43.860375,12.47925 C43.860375,12.47925 40.586625,13.26975 40.365,13.333125 C40.144875,13.39725 39.9825,13.6005 39.9825,13.843125 L39.9825,17.95575 C39.9825,18.251625 40.21875,18.490125 40.510875,18.490125 L43.860375,18.490125 C43.860375,18.490125 43.860375,22.791375 43.860375,28.384125 C43.860375,35.733 49.015125,36.454875 52.49325,36.454875 C54.082875,36.454875 55.984125,35.944125 56.298,35.828625 C56.48775,35.7585 56.598,35.562 56.598,35.348625 L56.603625,30.824625 C56.603625,30.529875 56.35425,30.290625 56.07375,30.290625 C55.794,30.290625 55.079625,30.404625 54.343875,30.404625 C51.988875,30.404625 51.19125,29.309625 51.19125,27.8925 C51.19125,26.476125 51.190875,18.490125 51.190875,18.490125 L55.98525,18.490125 C56.277375,18.490125 56.514,18.251625 56.514,17.95575 L56.514,12.804375 C56.514,12.50925 56.277375,12.2715 55.98525,12.2715" id="Fill-9"></path>
                    </g>
                </g>
            </g>
        </g>
    </g>
</svg>