<svg xmlns="http://www.w3.org/2000/svg" viewBox="0 0 1311 294">
  <defs>
    <filter id="a" width="104.1%" height="122.9%" x="-2.3%" y="-9.2%" filterUnits="objectBoundingBox">
      <feOffset dy="4" in="SourceAlpha" result="shadowOffsetOuter1"/>
      <feGaussianBlur in="shadowOffsetOuter1" result="shadowBlurOuter1" stdDeviation="4"/>
      <feColorMatrix in="shadowBlurOuter1" result="shadowMatrixOuter1" values="0 0 0 0 0 0 0 0 0 0 0 0 0 0 0 0 0 0 0.5 0"/>
      <feMerge>
        <feMergeNode in="shadowMatrixOuter1"/>
        <feMergeNode in="SourceGraphic"/>
      </feMerge>
    </filter>
  </defs>
  <g fill="none" fill-rule="evenodd" filter="url(#a)" transform="translate(23 17)">
    <path fill="#FFF" fill-rule="nonzero" d="M388.992 188.392c17.664 0 29.930667-2.545333 36.8-7.636 6.869333-5.090667 10.304-14.750667 10.304-28.98 0-9.568-2.024-17.326667-6.072-23.276-4.048-5.949333-10.978667-10.641333-20.792-14.076l-24.104-8.28c-5.152-1.717333-8.648-3.496-10.488-5.336-1.84-1.84-2.76-4.8453333-2.76-9.016 0-5.152 1.226667-8.372 3.68-9.66 2.453333-1.288 7.36-1.932 14.72-1.932 15.824 0 29.072.184 39.744.552l1.84-19.136c-11.653333-3.312-25.576-4.968-41.768-4.968-17.173333 0-29.164 2.3613333-35.972 7.084-6.808 4.7226667-10.212 14.076-10.212 28.06 0 9.568 2.024 17.296 6.072 23.184 4.048 5.888 10.794667 10.549333 20.24 13.984l25.576 9.016c4.538667 1.472 7.666667 3.097333 9.384 4.876 1.717333 1.778667 2.576 4.814667 2.576 9.108 0 5.029333-1.257333 8.341333-3.772 9.936-2.514667 1.594667-7.513333 2.392-14.996 2.392-1.84 0-15.824-.306667-41.952-.92l-1.656 20.24c14.72 3.189333 29.256 4.784 43.608 4.784zm69.550115 34.592c7.114666.858667 13.585333.368 19.412-1.472 5.826666-1.84 10.702666-4.692 14.628-8.556 3.925333-3.864 7.145333-7.881333 9.66-12.052 2.514666-4.170667 4.630666-8.709333 6.348-13.616l32.2-92h-29.072l-16.744 58.696c-.368 1.349333-.981334 3.588-1.84 6.716-.858667 3.128-1.472 5.428-1.84 6.9h-2.392c-.736-4.784-1.656-9.322667-2.76-13.616l-16.928-58.696h-29.072l29.624 84.088c1.349333 4.416 4.293333 6.624 8.832 6.624h5.152l-.368.736c-2.330667 5.274667-5.581334 9.476-9.752 12.604-4.170667 3.128-9.936 5.673333-17.296 7.636l2.208 16.008zM577.772229 186v-62.008c11.04-5.52 19.442667-8.28 25.208-8.28 3.312 0 5.612.766667 6.9 2.3 1.288 1.533333 1.932 4.324 1.932 8.372V186h27.048v-68.08c0-8.218667-2.177333-14.474667-6.532-18.768-4.354667-4.2933333-10.641333-6.44-18.86-6.44-12.757333 0-25.698667 5.336-38.824 16.008l-2.024-13.432h-22.08V186h27.232zm114.262115 2.208c10.058666 0 18.584-1.226667 25.576-3.68l-2.944-18.952h-11.592c-3.68 0-6.256-.674667-7.728-2.024-1.472-1.349333-2.208-3.741333-2.208-7.176v-42.872h25.208V95.288h-25.208V69.896h-27.048v25.392l-16.008.92v17.296h16.008v48.576c0 8.218667 2.269333 14.628 6.808 19.228 4.538666 4.6 10.917333 6.9 19.136 6.9zM757.720458 186v-62.008c10.304-5.52 18.706667-8.28 25.208-8.28 3.312 0 5.612.766667 6.9 2.3 1.288 1.533333 1.932 4.324 1.932 8.372V186h27.048v-68.08c0-8.218667-2.177333-14.474667-6.532-18.768-4.354667-4.2933333-10.641333-6.44-18.86-6.44-12.144 0-24.533333 4.968-37.168 14.904 1.104-6.378667 1.656-12.696 1.656-18.952V57.2h-27.416V186h27.232zm131.006115 1.656c20.24 0 34.316-4.661333 42.228-13.984 7.912-9.322667 11.868-26.373333 11.868-51.152 0-24.7786667-3.956-41.8293333-11.868-51.152-7.912-9.3226667-21.988-13.984-42.228-13.984-15.456 0-31.893334.552-49.312 1.656V186c17.418666 1.104 33.856 1.656 49.312 1.656zm0-22.08c-2.698667 0-6.409334-.030667-11.132-.092-4.722667-.061333-8.126667-.092-10.212-.092V79.464l21.344-.184c9.445333 0 15.916 3.036 19.412 9.108 3.496 6.072 5.244 17.449333 5.244 34.132s-1.748 28.029333-5.244 34.04c-3.496 6.010667-9.966667 9.016-19.412 9.016zM976.308687 186l9.2-33.304h43.608003l9.2 33.304h28.52l-36.616-119.6c-1.22667-4.9066667-4.47734-7.36-9.752-7.36h-26.496003c-2.330666 0-4.416.6746667-6.256 2.024-1.84 1.3493333-3.005333 3.128-3.496 5.336l-36.616 119.6h28.704zm46.736003-55.016h-31.648003l10.672003-38.824c.368-1.3493333.85866-3.3733333 1.472-6.072.61333-2.6986667 1.04266-4.6613333 1.288-5.888h4.968c.24533 1.84 1.104 5.8266667 2.576 11.96l10.672 38.824zm102.67011 57.408c20.36267 0 34.53067-4.692 42.504-14.076 7.97334-9.384 11.96-26.649333 11.96-51.796 0-25.1466667-3.98666-42.412-11.96-51.796-7.97333-9.384-22.14133-14.076-42.504-14.076-20.36266 0-34.53066 4.7226667-42.504 14.168-7.85066 9.3226667-11.776 26.5573333-11.776 51.704 0 25.146667 3.956 42.412 11.868 51.796 7.912 9.384 22.04934 14.076 42.412 14.076zm0-22.632c-9.568 0-16.1-3.005333-19.596-9.016-3.496-6.010667-5.244-17.418667-5.244-34.224 0-16.805333 1.748-28.2133333 5.244-34.224 3.496-6.0106667 10.028-9.016 19.596-9.016s16.06934 3.0053333 19.504 9.016c3.55734 6.0106667 5.336 17.418667 5.336 34.224 0 16.805333-1.748 28.213333-5.244 34.224-3.496 6.010667-10.028 9.016-19.596 9.016z"/>
    <g stroke="#FFF" stroke-linecap="round" stroke-linejoin="round" stroke-width="22.5674931">
      <path d="M5.64187328 112.8374659v56.4187331M231.316804 112.8374659v56.4187331M95.9118457 33.85124v180.539945M186.181818 90.2699728V203.107438M50.7768595 78.9862262V191.823692M141.046832 67.7024797V248.242425"/>
    </g>
  </g>
</svg>